<?xml version="1.0" standalone="no"?>
<!DOCTYPE svg PUBLIC "-//W3C//DTD SVG 20010904//EN"
 "http://www.w3.org/TR/2001/REC-SVG-20010904/DTD/svg10.dtd">
<svg version="1.0" xmlns="http://www.w3.org/2000/svg"
 width="512.000000pt" height="512.000000pt" viewBox="0 0 512.000000 512.000000"
 preserveAspectRatio="xMidYMid meet">
<metadata>
Created by potrace 1.11, written by Peter Selinger 2001-2013
</metadata>
<g transform="translate(0.000000,512.000000) scale(0.100000,-0.100000)"
fill="#000000" stroke="none">
<path d="M3582 5090 c-4 -3 -8 -234 -7 -515 l0 -510 503 -3 502 -2 1 137 c0
122 0 697 -1 843 l0 56 -495 0 c-273 0 -499 -3 -503 -6z"/>
<path d="M2399 4055 c-2 -1 -31 -6 -64 -9 -33 -3 -71 -8 -85 -10 -14 -3 -41
-7 -60 -10 -169 -25 -453 -130 -640 -237 -212 -120 -473 -352 -602 -534 -4 -5
-18 -23 -31 -40 -30 -39 -72 -105 -104 -163 -15 -26 -35 -63 -46 -82 -76 -137
-171 -411 -192 -560 -4 -24 -8 -47 -10 -50 -10 -17 -20 -179 -19 -340 0 -249
29 -419 109 -650 238 -682 846 -1197 1561 -1321 141 -24 424 -33 564 -16 333
38 633 147 905 329 154 104 232 172 405 357 37 40 126 159 176 237 53 82 155
279 169 326 4 13 13 37 21 53 28 62 87 289 100 381 3 27 8 56 9 65 13 65 17
261 17 707 0 284 -1 527 -1 540 l-1 22 -502 -2 -502 -3 -2 -525 c0 -289 -4
-554 -8 -590 -53 -462 -416 -833 -876 -894 -51 -7 -224 -9 -255 -2 -11 2 -40
7 -63 11 -24 4 -76 17 -116 30 -295 94 -535 319 -643 603 -26 69 -28 78 -44
147 -62 281 1 576 174 815 82 113 234 242 366 309 53 28 202 77 255 85 21 4
50 9 64 13 14 3 278 7 586 7 l561 1 0 500 0 500 -586 2 c-323 1 -589 0 -590
-2z"/>
</g>
</svg>
